<?xml version="1.0" encoding="UTF-8" standalone="no"?>
<!DOCTYPE svg PUBLIC "-//W3C//DTD SVG 1.1//EN"
 "http://www.w3.org/Graphics/SVG/1.1/DTD/svg11.dtd">
<!-- Generated by graphviz version 2.38.0 (20140413.2041)
 -->
<!-- Title: models_diagram Pages: 1 -->
<svg width="553pt" height="158pt"
 viewBox="0.00 0.00 553.34 158.00" xmlns="http://www.w3.org/2000/svg" xmlns:xlink="http://www.w3.org/1999/xlink">
<g id="graph0" class="graph" transform="scale(1 1) rotate(0) translate(4 154)">
<title>models_diagram</title>
<polygon fill="none" stroke="none" points="-4,4 -4,-154 549.343,-154 549.343,4 -4,4"/>
<!-- _diagram_info -->
<g id="node1" class="node"><title>_diagram_info</title>
<text text-anchor="start" x="8" y="-135.6" font-family="Times,serif" font-size="13.00">Models diagram</text>
<text text-anchor="start" x="8" y="-121.6" font-family="Times,serif" font-size="13.00">Date: Nov 21 2016 &#45; 20:09</text>
<text text-anchor="start" x="8" y="-107.6" font-family="Times,serif" font-size="13.00">Migration version: 20161121225139</text>
<text text-anchor="start" x="8" y="-93.6" font-family="Times,serif" font-size="13.00">Generated by RailRoady 1.5.2</text>
<text text-anchor="start" x="8" y="-79.6" font-family="Times,serif" font-size="13.00">http://railroady.prestonlee.com</text>
</g>
<!-- Genre -->
<g id="node2" class="node"><title>Genre</title>
<ellipse fill="none" stroke="black" cx="264" cy="-111" rx="32.4942" ry="18"/>
<text text-anchor="middle" x="264" y="-107.3" font-family="Times,serif" font-size="14.00">Genre</text>
</g>
<!-- Song -->
<g id="node6" class="node"><title>Song</title>
<ellipse fill="none" stroke="black" cx="264" cy="-18" rx="28.6953" ry="18"/>
<text text-anchor="middle" x="264" y="-14.3" font-family="Times,serif" font-size="14.00">Song</text>
</g>
<!-- Genre&#45;&gt;Song -->
<g id="edge1" class="edge"><title>Genre&#45;&gt;Song</title>
<path fill="none" stroke="#6d2b08" d="M264,-84.7285C264,-72.7246 264,-58.3622 264,-46.1291"/>
<ellipse fill="none" stroke="#6d2b08" cx="264" cy="-88.8836" rx="4" ry="4"/>
<polygon fill="#6d2b08" stroke="#6d2b08" points="264,-46.0397 268.5,-36.0396 264,-41.0397 264,-36.0397 264,-36.0397 264,-36.0397 264,-41.0397 259.5,-36.0397 264,-46.0397 264,-46.0397"/>
</g>
<!-- Playlist -->
<g id="node3" class="node"><title>Playlist</title>
<ellipse fill="none" stroke="black" cx="348" cy="-18" rx="37.0935" ry="18"/>
<text text-anchor="middle" x="348" y="-14.3" font-family="Times,serif" font-size="14.00">Playlist</text>
</g>
<!-- ApplicationRecord -->
<g id="node4" class="node"><title>ApplicationRecord</title>
<ellipse fill="none" stroke="black" cx="468" cy="-111" rx="77.1866" ry="18"/>
<text text-anchor="middle" x="468" y="-107.3" font-family="Times,serif" font-size="14.00">ApplicationRecord</text>
</g>
<!-- User -->
<g id="node5" class="node"><title>User</title>
<ellipse fill="none" stroke="black" cx="345" cy="-111" rx="27.0966" ry="18"/>
<text text-anchor="middle" x="345" y="-107.3" font-family="Times,serif" font-size="14.00">User</text>
</g>
<!-- User&#45;&gt;Playlist -->
<g id="edge2" class="edge"><title>User&#45;&gt;Playlist</title>
<path fill="none" stroke="#a23d54" d="M345.833,-84.7285C346.229,-72.7246 346.702,-58.3622 347.106,-46.1291"/>
<ellipse fill="none" stroke="#a23d54" cx="345.696" cy="-88.8858" rx="4" ry="4"/>
<polygon fill="#a23d54" stroke="#a23d54" points="347.109,-46.0342 351.936,-36.188 347.273,-41.0369 347.438,-36.0397 347.438,-36.0397 347.438,-36.0397 347.273,-41.0369 342.941,-35.8913 347.109,-46.0342 347.109,-46.0342"/>
</g>
<!-- User&#45;&gt;Song -->
<g id="edge3" class="edge"><title>User&#45;&gt;Song</title>
<path fill="none" stroke="#67eab0" d="M324.799,-87.3045C312.42,-73.3978 296.629,-55.6578 284.243,-41.7424"/>
<polygon fill="#67eab0" stroke="#67eab0" points="324.976,-87.5036 328.263,-97.9651 328.3,-91.2384 331.624,-94.9732 331.624,-94.9732 331.624,-94.9732 328.3,-91.2384 334.986,-91.9813 324.976,-87.5036 324.976,-87.5036"/>
<polygon fill="#67eab0" stroke="#67eab0" points="284.044,-41.5187 280.757,-31.0572 280.72,-37.7839 277.395,-34.0491 277.395,-34.0491 277.395,-34.0491 280.72,-37.7839 274.034,-37.0411 284.044,-41.5187 284.044,-41.5187"/>
</g>
</g>
</svg>
