<?xml version="1.0" encoding="UTF-8" standalone="no"?>
<!DOCTYPE svg PUBLIC "-//W3C//DTD SVG 1.1//EN"
 "http://www.w3.org/Graphics/SVG/1.1/DTD/svg11.dtd">
<!-- Generated by graphviz version 2.38.0 (20140413.2041)
 -->
<!-- Title: models_diagram Pages: 1 -->
<svg width="988pt" height="408pt"
 viewBox="0.00 0.00 988.34 408.00" xmlns="http://www.w3.org/2000/svg" xmlns:xlink="http://www.w3.org/1999/xlink">
<g id="graph0" class="graph" transform="scale(1 1) rotate(0) translate(4 404)">
<title>models_diagram</title>
<polygon fill="none" stroke="none" points="-4,4 -4,-404 984.343,-404 984.343,4 -4,4"/>
<!-- _diagram_info -->
<g id="node1" class="node"><title>_diagram_info</title>
<text text-anchor="start" x="8" y="-303.6" font-family="Times,serif" font-size="13.00">Models diagram</text>
<text text-anchor="start" x="8" y="-289.6" font-family="Times,serif" font-size="13.00">Date: Nov 21 2016 &#45; 20:09</text>
<text text-anchor="start" x="8" y="-275.6" font-family="Times,serif" font-size="13.00">Migration version: 20161121225139</text>
<text text-anchor="start" x="8" y="-261.6" font-family="Times,serif" font-size="13.00">Generated by RailRoady 1.5.2</text>
<text text-anchor="start" x="8" y="-247.6" font-family="Times,serif" font-size="13.00">http://railroady.prestonlee.com</text>
</g>
<!-- Genre -->
<g id="node2" class="node"><title>Genre</title>
<path fill="none" stroke="black" d="M244,-233.5C244,-233.5 464,-233.5 464,-233.5 470,-233.5 476,-239.5 476,-245.5 476,-245.5 476,-312.5 476,-312.5 476,-318.5 470,-324.5 464,-324.5 464,-324.5 244,-324.5 244,-324.5 238,-324.5 232,-318.5 232,-312.5 232,-312.5 232,-245.5 232,-245.5 232,-239.5 238,-233.5 244,-233.5"/>
<text text-anchor="middle" x="354" y="-309.3" font-family="Times,serif" font-size="14.00">Genre</text>
<polyline fill="none" stroke="black" points="232,-301.5 476,-301.5 "/>
<text text-anchor="start" x="240" y="-286.3" font-family="Times,serif" font-size="14.00">id :integer</text>
<text text-anchor="start" x="240" y="-271.3" font-family="Times,serif" font-size="14.00">name :character varying</text>
<text text-anchor="start" x="240" y="-256.3" font-family="Times,serif" font-size="14.00">created_at :timestamp without time zone</text>
<text text-anchor="start" x="240" y="-241.3" font-family="Times,serif" font-size="14.00">updated_at :timestamp without time zone</text>
</g>
<!-- Song -->
<g id="node6" class="node"><title>Song</title>
<ellipse fill="none" stroke="black" cx="418" cy="-61" rx="28.6953" ry="18"/>
<text text-anchor="middle" x="418" y="-57.3" font-family="Times,serif" font-size="14.00">Song</text>
</g>
<!-- Genre&#45;&gt;Song -->
<g id="edge1" class="edge"><title>Genre&#45;&gt;Song</title>
<path fill="none" stroke="#a256d0" d="M369.569,-225.455C382.406,-182.13 400.084,-122.466 410.148,-88.5005"/>
<ellipse fill="none" stroke="#a256d0" cx="368.397" cy="-229.409" rx="4.00001" ry="4.00001"/>
<polygon fill="#a256d0" stroke="#a256d0" points="410.172,-88.4191 417.328,-80.1095 411.593,-83.6251 413.013,-78.8311 413.013,-78.8311 413.013,-78.8311 411.593,-83.6251 408.698,-77.5527 410.172,-88.4191 410.172,-88.4191"/>
</g>
<!-- Playlist -->
<g id="node3" class="node"><title>Playlist</title>
<path fill="none" stroke="black" d="M541,-0.5C541,-0.5 761,-0.5 761,-0.5 767,-0.5 773,-6.5 773,-12.5 773,-12.5 773,-109.5 773,-109.5 773,-115.5 767,-121.5 761,-121.5 761,-121.5 541,-121.5 541,-121.5 535,-121.5 529,-115.5 529,-109.5 529,-109.5 529,-12.5 529,-12.5 529,-6.5 535,-0.5 541,-0.5"/>
<text text-anchor="middle" x="651" y="-106.3" font-family="Times,serif" font-size="14.00">Playlist</text>
<polyline fill="none" stroke="black" points="529,-98.5 773,-98.5 "/>
<text text-anchor="start" x="537" y="-83.3" font-family="Times,serif" font-size="14.00">id :integer</text>
<text text-anchor="start" x="537" y="-68.3" font-family="Times,serif" font-size="14.00">user_id :integer</text>
<text text-anchor="start" x="537" y="-53.3" font-family="Times,serif" font-size="14.00">song_id :integer</text>
<text text-anchor="start" x="537" y="-38.3" font-family="Times,serif" font-size="14.00">position :integer</text>
<text text-anchor="start" x="537" y="-23.3" font-family="Times,serif" font-size="14.00">created_at :timestamp without time zone</text>
<text text-anchor="start" x="537" y="-8.3" font-family="Times,serif" font-size="14.00">updated_at :timestamp without time zone</text>
</g>
<!-- ApplicationRecord -->
<g id="node4" class="node"><title>ApplicationRecord</title>
<ellipse fill="none" stroke="black" cx="903" cy="-279" rx="77.1866" ry="18"/>
<text text-anchor="middle" x="903" y="-275.3" font-family="Times,serif" font-size="14.00">ApplicationRecord</text>
</g>
<!-- User -->
<g id="node5" class="node"><title>User</title>
<path fill="none" stroke="black" d="M506.5,-158.5C506.5,-158.5 795.5,-158.5 795.5,-158.5 801.5,-158.5 807.5,-164.5 807.5,-170.5 807.5,-170.5 807.5,-387.5 807.5,-387.5 807.5,-393.5 801.5,-399.5 795.5,-399.5 795.5,-399.5 506.5,-399.5 506.5,-399.5 500.5,-399.5 494.5,-393.5 494.5,-387.5 494.5,-387.5 494.5,-170.5 494.5,-170.5 494.5,-164.5 500.5,-158.5 506.5,-158.5"/>
<text text-anchor="middle" x="651" y="-384.3" font-family="Times,serif" font-size="14.00">User</text>
<polyline fill="none" stroke="black" points="494.5,-376.5 807.5,-376.5 "/>
<text text-anchor="start" x="502.5" y="-361.3" font-family="Times,serif" font-size="14.00">id :integer</text>
<text text-anchor="start" x="502.5" y="-346.3" font-family="Times,serif" font-size="14.00">email :character varying</text>
<text text-anchor="start" x="502.5" y="-331.3" font-family="Times,serif" font-size="14.00">encrypted_password :character varying</text>
<text text-anchor="start" x="502.5" y="-316.3" font-family="Times,serif" font-size="14.00">reset_password_token :character varying</text>
<text text-anchor="start" x="502.5" y="-301.3" font-family="Times,serif" font-size="14.00">reset_password_sent_at :timestamp without time zone</text>
<text text-anchor="start" x="502.5" y="-286.3" font-family="Times,serif" font-size="14.00">remember_created_at :timestamp without time zone</text>
<text text-anchor="start" x="502.5" y="-271.3" font-family="Times,serif" font-size="14.00">sign_in_count :integer</text>
<text text-anchor="start" x="502.5" y="-256.3" font-family="Times,serif" font-size="14.00">current_sign_in_at :timestamp without time zone</text>
<text text-anchor="start" x="502.5" y="-241.3" font-family="Times,serif" font-size="14.00">last_sign_in_at :timestamp without time zone</text>
<text text-anchor="start" x="502.5" y="-226.3" font-family="Times,serif" font-size="14.00">current_sign_in_ip :inet</text>
<text text-anchor="start" x="502.5" y="-211.3" font-family="Times,serif" font-size="14.00">last_sign_in_ip :inet</text>
<text text-anchor="start" x="502.5" y="-196.3" font-family="Times,serif" font-size="14.00">created_at :timestamp without time zone</text>
<text text-anchor="start" x="502.5" y="-181.3" font-family="Times,serif" font-size="14.00">updated_at :timestamp without time zone</text>
<text text-anchor="start" x="502.5" y="-166.3" font-family="Times,serif" font-size="14.00">role :integer</text>
</g>
<!-- User&#45;&gt;Playlist -->
<g id="edge2" class="edge"><title>User&#45;&gt;Playlist</title>
<path fill="none" stroke="#f95431" d="M651,-150.048C651,-143.932 651,-137.905 651,-132.048"/>
<ellipse fill="none" stroke="#f95431" cx="651" cy="-154.313" rx="4" ry="4"/>
<polygon fill="#f95431" stroke="#f95431" points="651,-131.708 655.5,-121.708 651,-126.708 651,-121.708 651,-121.708 651,-121.708 651,-126.708 646.5,-121.708 651,-131.708 651,-131.708"/>
</g>
<!-- User&#45;&gt;Song -->
<g id="edge3" class="edge"><title>User&#45;&gt;Song</title>
<path fill="none" stroke="#de9283" d="M514.436,-151.4C486.056,-125.091 459.315,-100.301 441.224,-83.5293"/>
<polygon fill="#de9283" stroke="#de9283" points="514.56,-151.515 518.834,-161.613 518.227,-154.914 521.894,-158.313 521.894,-158.313 521.894,-158.313 518.227,-154.914 524.953,-155.013 514.56,-151.515 514.56,-151.515"/>
<polygon fill="#de9283" stroke="#de9283" points="440.879,-83.2096 436.605,-73.111 437.212,-79.8104 433.545,-76.4111 433.545,-76.4111 433.545,-76.4111 437.212,-79.8104 430.486,-79.7112 440.879,-83.2096 440.879,-83.2096"/>
</g>
</g>
</svg>
